<svg xmlns="http://www.w3.org/2000/svg" xmlns:xlink="http://www.w3.org/1999/xlink" width="117.047" height="26.02" viewBox="0 0 117.047 26.02">
  <defs>
    <clipPath id="clip-path">
      <rect id="Rectangle_1225" data-name="Rectangle 1225" width="13.651" height="10.076" fill="none" stroke="#fff" stroke-width="1"/>
    </clipPath>
    <clipPath id="clip-path-2">
      <rect id="Rectangle_1226" data-name="Rectangle 1226" width="10.005" height="10.073" fill="none" stroke="#fff" stroke-width="1"/>
    </clipPath>
    <clipPath id="clip-path-3">
      <rect id="Rectangle_1228" data-name="Rectangle 1228" width="6.532" height="12.065" fill="none" stroke="#fff" stroke-width="1"/>
    </clipPath>
  </defs>
  <g id="Group_829" data-name="Group 829" transform="translate(-429.777 -7450.31)">
    <circle id="Ellipse_48" data-name="Ellipse 48" cx="12.51" cy="12.51" r="12.51" transform="translate(460.619 7450.81)" fill="none" stroke="#4d858d" stroke-linecap="round" stroke-linejoin="round" stroke-width="1"/>
    <g id="Group_792" data-name="Group 792" transform="translate(466.625 7458.642)">
      <g id="Group_791" data-name="Group 791" clip-path="url(#clip-path)">
        <path id="Path_5522" data-name="Path 5522" d="M80.017,16.545a4.847,4.847,0,0,1-1.38.372,2.379,2.379,0,0,0,1.056-1.309,4.846,4.846,0,0,1-1.526.574,2.416,2.416,0,0,0-1.753-.747,2.365,2.365,0,0,0-2.34,2.9,6.859,6.859,0,0,1-4.951-2.47,2.326,2.326,0,0,0-.325,1.189,2.355,2.355,0,0,0,1.069,1.967,2.425,2.425,0,0,1-1.089-.3v.03a2.315,2.315,0,0,0,.165.857,2.4,2.4,0,0,0,1.763,1.461,2.441,2.441,0,0,1-1.085.04,2.4,2.4,0,0,0,2.244,1.642,4.869,4.869,0,0,1-2.984,1.012,5.031,5.031,0,0,1-.573-.033A6.885,6.885,0,0,0,71.992,24.8a6.686,6.686,0,0,0,6.67-5.3,6.484,6.484,0,0,0,.163-1.427c0-.1,0-.2-.006-.306A4.825,4.825,0,0,0,80.017,16.545Z" transform="translate(-67.133 -15.003)" fill="none" stroke="#fff" stroke-miterlimit="10" stroke-width="1"/>
      </g>
    </g>
    <circle id="Ellipse_49" data-name="Ellipse 49" cx="12.51" cy="12.51" r="12.51" transform="translate(490.961 7450.81)" fill="none" stroke="#4d858d" stroke-linecap="round" stroke-linejoin="round" stroke-width="1"/>
    <g id="Group_795" data-name="Group 795" transform="translate(498.469 7458.284)">
      <g id="Group_794" data-name="Group 794" clip-path="url(#clip-path-2)">
        <path id="Path_5523" data-name="Path 5523" d="M131.653,24.025h-5.4a2.007,2.007,0,0,1-2.027-1.981V16.487a2.007,2.007,0,0,1,2.027-1.981h5.4a2.007,2.007,0,0,1,2.027,1.981v5.558A2.007,2.007,0,0,1,131.653,24.025Z" transform="translate(-123.952 -14.229)" fill="none" stroke="#fff" stroke-miterlimit="10" stroke-width="1"/>
        <circle id="Ellipse_50" data-name="Ellipse 50" cx="1.89" cy="1.89" r="1.89" transform="translate(3.113 3.146)" fill="none" stroke="#fff" stroke-miterlimit="10" stroke-width="1"/>
        <circle id="Ellipse_51" data-name="Ellipse 51" cx="0.578" cy="0.578" r="0.578" transform="translate(7.077 1.864)" fill="none" stroke="#fff" stroke-miterlimit="10" stroke-width="1"/>
      </g>
    </g>
    <circle id="Ellipse_52" data-name="Ellipse 52" cx="12.51" cy="12.51" r="12.51" transform="translate(430.277 7450.81)" fill="none" stroke="#4d858d" stroke-linecap="round" stroke-linejoin="round" stroke-width="1"/>
    <g id="Group_798" data-name="Group 798" transform="translate(437.821 7457.465)">
      <g id="Group_939" data-name="Group 939">
        <path id="Path_5524" data-name="Path 5524" d="M14.633,20.753v4.856h2.314V19H14.633Z" transform="translate(-14.357 -15.416)" fill="none" stroke="#fff" stroke-miterlimit="10" stroke-width="1"/>
        <path id="Path_5525" data-name="Path 5525" d="M15.791,13.026a1.157,1.157,0,1,0,1.157,1.157A1.156,1.156,0,0,0,15.791,13.026Z" transform="translate(-14.357 -12.749)" fill="none" stroke="#fff" stroke-miterlimit="10" stroke-width="1"/>
        <path id="Path_5526" data-name="Path 5526" d="M27.432,21.028C27.276,19.782,26.7,19,25.019,19a2.072,2.072,0,0,0-1.945.892h-.028V19H21.2v6.611h1.926V22.332c0-.864.163-1.7,1.232-1.7,1.053,0,1.138.988,1.138,1.756v3.221h1.983V21.976h0A7.707,7.707,0,0,0,27.432,21.028Z" transform="translate(-17.291 -15.416)" fill="none" stroke="#fff" stroke-miterlimit="10" stroke-width="1"/>
        <g id="Group_940" data-name="Group 940">
          <rect id="Rectangle_1227" data-name="Rectangle 1227" width="10.469" height="10.469" fill="none" stroke="#fff" stroke-width="1"/>
        </g>
      </g>
    </g>
    <circle id="Ellipse_53" data-name="Ellipse 53" cx="12.51" cy="12.51" r="12.51" transform="translate(521.304 7450.81)" fill="none" stroke="#4d858d" stroke-linecap="round" stroke-linejoin="round" stroke-width="1"/>
    <g id="Group_801" data-name="Group 801" transform="translate(530.548 7457.288)">
      <g id="Group_800" data-name="Group 800" clip-path="url(#clip-path-3)">
        <path id="Path_5527" data-name="Path 5527" d="M186.078,24.217V18.966h1.763l.264-2.046h-2.026V15.613c0-.593.164-1,1.014-1h1.084V12.786A14.488,14.488,0,0,0,186.6,12.7a2.466,2.466,0,0,0-2.632,2.705V16.92H182.2v2.046h1.767v5.251Z" transform="translate(-181.921 -12.429)" fill="none" stroke="#fff" stroke-miterlimit="10" stroke-width="1"/>
      </g>
    </g>
  </g>
</svg>
