<svg xmlns="http://www.w3.org/2000/svg" xmlns:xlink="http://www.w3.org/1999/xlink" width="25" height="26.02" viewBox="0 0 25 26.02">
  <defs>
    <clipPath id="clip-path">
      <rect id="Rectangle_1225" data-name="Rectangle 1225" width="13.651" height="10.076" fill="none" stroke="#fff" stroke-width="1"/>
    </clipPath>
    <clipPath id="clip-path-2">
      <rect id="Rectangle_1226" data-name="Rectangle 1226" width="10.005" height="10.073" fill="none" stroke="#fff" stroke-width="1"/>
    </clipPath>
    <clipPath id="clip-path-3">
      <rect id="Rectangle_1228" data-name="Rectangle 1228" width="6.532" height="12.065" fill="none" stroke="#fff" stroke-width="1"/>
    </clipPath>
  </defs>
  <g id="Group_829" data-name="Group 829" transform="translate(-429.777 -7450.31)">
    <circle id="Ellipse_48" data-name="Ellipse 48" cx="12.51" cy="12.51" r="12.51" transform="translate(460.619 7450.81)" fill="none" stroke="#4d858d" stroke-linecap="round" stroke-linejoin="round" stroke-width="1"/>
    <g id="Group_792" data-name="Group 792" transform="translate(466.625 7458.642)">
      <g id="Group_791" data-name="Group 791" clip-path="url(#clip-path)">
        <path id="Path_5522" data-name="Path 5522" d="M80.017,16.545a4.847,4.847,0,0,1-1.38.372,2.379,2.379,0,0,0,1.056-1.309,4.846,4.846,0,0,1-1.526.574,2.416,2.416,0,0,0-1.753-.747,2.365,2.365,0,0,0-2.34,2.9,6.859,6.859,0,0,1-4.951-2.47,2.326,2.326,0,0,0-.325,1.189,2.355,2.355,0,0,0,1.069,1.967,2.425,2.425,0,0,1-1.089-.3v.03a2.315,2.315,0,0,0,.165.857,2.4,2.4,0,0,0,1.763,1.461,2.441,2.441,0,0,1-1.085.04,2.4,2.4,0,0,0,2.244,1.642,4.869,4.869,0,0,1-2.984,1.012,5.031,5.031,0,0,1-.573-.033A6.885,6.885,0,0,0,71.992,24.8a6.686,6.686,0,0,0,6.67-5.3,6.484,6.484,0,0,0,.163-1.427c0-.1,0-.2-.006-.306A4.825,4.825,0,0,0,80.017,16.545Z" transform="translate(-67.133 -15.003)" fill="none" stroke="#fff" stroke-miterlimit="10" stroke-width="1"/>
      </g>
    </g>
 
  </g>
</svg>
