<svg xmlns="http://www.w3.org/2000/svg" xmlns:xlink="http://www.w3.org/1999/xlink" width="80" height="80" viewBox="0 0 80 80">
  <defs>
    <clipPath id="clip-path">
      <rect id="Rectangle_1195" data-name="Rectangle 1195" width="80" height="80" fill="none" stroke="#4d858d" stroke-width="1"/>
    </clipPath>
    <clipPath id="clip-path-2">
      <path id="Path_5489" data-name="Path 5489" d="M43.392,20.688a10.211,10.211,0,0,0-5.335-1.949c-3.326,0,1.9,3.373,1.9,6.608,0,1.733-9.28,7.636-9.28,14.736A8.564,8.564,0,0,0,31.73,44.23a9.878,9.878,0,0,1,2.252-.266,10.347,10.347,0,0,1,4.969,1.157.04.04,0,0,0,.019,0h10.6a2.574,2.574,0,0,1,2.551,2.32,8.841,8.841,0,0,0,3.988-7.361c0-7.1-9.273-13-9.278-14.734v-.007c0-3.234,5.225-6.6,1.9-6.6a10.222,10.222,0,0,0-5.337,1.949" transform="translate(-30.679 -18.739)" fill="none" stroke="#4d858d" stroke-width="1"/>
    </clipPath>
  </defs>
  <g id="Group_812" data-name="Group 812" transform="translate(-1086.644 -2866.287)">
    <g id="Group_754" data-name="Group 754" transform="translate(1086.644 2866.287)">
      <g id="Group_753" data-name="Group 753" transform="translate(0 0)" clip-path="url(#clip-path)">
        <path id="Path_5486" data-name="Path 5486" d="M25.281,48.444l8.588,8.589a3.52,3.52,0,0,1,2.472-1.006H49.452A5.169,5.169,0,0,0,53.13,54.5l7.414-7.414A2.578,2.578,0,0,0,56.9,43.443l-4.781,4.781a2.668,2.668,0,0,1-2.664,2.647h-6.84a.043.043,0,0,1-.043-.043.043.043,0,0,1,.043-.043h6.84a2.581,2.581,0,0,0,2.578-2.578v0a2.58,2.58,0,0,0-2.578-2.577h-10.6a.063.063,0,0,1-.02,0,10.335,10.335,0,0,0-4.969-1.157C29.884,44.467,26.789,46.944,25.281,48.444Z" transform="translate(-0.53 -0.895)" fill="none" stroke="#4d858d" stroke-linecap="round" stroke-linejoin="round" stroke-width="1"/>
        <rect id="Rectangle_1194" data-name="Rectangle 1194" width="6.99" height="15.728" rx="1.785" transform="translate(18.511 51.256) rotate(-45)" fill="none" stroke="#4d858d" stroke-linecap="round" stroke-linejoin="round" stroke-width="1"/>
      </g>
    </g>
    <g id="Group_756" data-name="Group 756" transform="translate(1116.679 2884.633)">
      <g id="Group_755" data-name="Group 755" transform="translate(0 0)" clip-path="url(#clip-path-2)">
        <path id="Path_5487" data-name="Path 5487" d="M43.393,49.92c7.38,0,12.714-4.06,12.714-9.836,0-7.1-9.28-13-9.28-14.736,0-3.236,5.228-6.608,1.9-6.608a10.219,10.219,0,0,0-5.336,1.948,10.219,10.219,0,0,0-5.336-1.948c-3.326,0,1.9,3.372,1.9,6.608,0,1.733-9.28,7.636-9.28,14.736C30.679,45.86,36.013,49.92,43.393,49.92Z" transform="translate(-30.679 -18.739)" fill="none" stroke="#4d858d" stroke-linecap="round" stroke-linejoin="round" stroke-width="1"/>
        <rect id="Rectangle_1196" data-name="Rectangle 1196" width="6.867" height="0.065" transform="translate(9.28 6.577)" fill="none" stroke="#4d858d" stroke-linecap="round" stroke-linejoin="round" stroke-width="1"/>
        <path id="Path_5488" data-name="Path 5488" d="M46.443,40.645A2.472,2.472,0,0,0,44.2,38.416l-1.122-.255A2.173,2.173,0,0,1,41.1,36.21a2.3,2.3,0,0,1,2.5-2,2.3,2.3,0,0,1,2.5,2,.04.04,0,1,0,.08,0,2.365,2.365,0,0,0-2.545-2.073v-.981a.04.04,0,1,0-.08,0v.981A2.364,2.364,0,0,0,41.02,36.21a2.25,2.25,0,0,0,2.042,2.03l1.122.256a2.393,2.393,0,0,1,2.179,2.15,2.531,2.531,0,0,1-2.759,2.2,2.53,2.53,0,0,1-2.759-2.2.04.04,0,0,0-.08,0,2.6,2.6,0,0,0,2.8,2.276V43.9a.04.04,0,0,0,.08,0v-.981A2.6,2.6,0,0,0,46.443,40.645Z" transform="translate(-30.89 -19.04)" fill="none" stroke="#4d858d" stroke-linecap="round" stroke-linejoin="round" stroke-width="1"/>
      </g>
    </g>
    <path id="Path_5490" data-name="Path 5490" d="M38.951,45.122a.042.042,0,0,0,.019,0h10.6a2.572,2.572,0,0,1,2.551,2.32,8.843,8.843,0,0,0,3.989-7.362c0-7.1-9.274-13-9.28-14.734v-.007c.006-3.234,5.226-6.6,1.9-6.6a10.216,10.216,0,0,0-5.336,1.949,10.216,10.216,0,0,0-5.336-1.949c-3.326,0,1.9,3.373,1.9,6.608,0,1.732-9.28,7.636-9.28,14.735a8.565,8.565,0,0,0,1.051,4.147,9.871,9.871,0,0,1,2.252-.266A10.347,10.347,0,0,1,38.951,45.122Z" transform="translate(1086 2865.894)" fill="none" stroke="#4d858d" stroke-linecap="round" stroke-linejoin="round" stroke-width="1"/>
    <path id="Path_5491" data-name="Path 5491" d="M79.881,40A39.878,39.878,0,1,1,40,.125,39.878,39.878,0,0,1,79.881,40Z" transform="translate(1086.641 2866.284)" fill="none"/>
  </g>
</svg>
