<svg xmlns="http://www.w3.org/2000/svg" width="80" height="80.001" viewBox="0 0 80 80.001">
  <g id="Group_813" data-name="Group 813" transform="translate(-272.77 -3189.412)">
    <path id="Path_5492" data-name="Path 5492" d="M80.126,40.125a40,40,0,1,1-40-40A40,40,0,0,1,80.126,40.125Z" transform="translate(272.644 3189.287)" fill="none"/>
    <g id="Group_771" data-name="Group 771" transform="translate(285.78 3203.21)">
      <path id="Path_5493" data-name="Path 5493" d="M42.987,31.233V25.456a.664.664,0,0,1,.662-.662H61.625a.662.662,0,0,1,.663.662V59.829" transform="translate(-13.906 -14.366)" fill="none" stroke="#4d858d" stroke-linecap="round" stroke-linejoin="round" stroke-width="1"/>
      <line id="Line_195" data-name="Line 195" x1="0.003" y1="14.813" transform="translate(29.083 30.65)" fill="none" stroke="#4d858d" stroke-linecap="round" stroke-linejoin="round" stroke-width="1"/>
      <path id="Path_5494" data-name="Path 5494" d="M46.938,24.8a5.77,5.77,0,0,1,11.54,0" transform="translate(-13.977 -14.263)" fill="none" stroke="#4d858d" stroke-linecap="round" stroke-linejoin="round" stroke-width="1"/>
      <line id="Line_196" data-name="Line 196" y1="4.307" transform="translate(38.73)" fill="none" stroke="#4d858d" stroke-linecap="round" stroke-linejoin="round" stroke-width="1"/>
      <rect id="Rectangle_1198" data-name="Rectangle 1198" width="3.889" height="3.741" transform="translate(33.039 14.996)" fill="none" stroke="#4d858d" stroke-linecap="round" stroke-linejoin="round" stroke-width="1"/>
      <rect id="Rectangle_1199" data-name="Rectangle 1199" width="3.89" height="3.741" transform="translate(40.54 14.996)" fill="none" stroke="#4d858d" stroke-linecap="round" stroke-linejoin="round" stroke-width="1"/>
      <path id="Path_5495" data-name="Path 5495" d="M47.9,36.988h3v3.741h-4.15" transform="translate(-13.974 -14.585)" fill="none" stroke="#4d858d" stroke-linecap="round" stroke-linejoin="round" stroke-width="1"/>
      <rect id="Rectangle_1200" data-name="Rectangle 1200" width="3.89" height="3.741" transform="translate(40.54 22.402)" fill="none" stroke="#4d858d" stroke-linecap="round" stroke-linejoin="round" stroke-width="1"/>
      <rect id="Rectangle_1201" data-name="Rectangle 1201" width="3.889" height="3.741" transform="translate(33.039 37.217)" fill="none" stroke="#4d858d" stroke-linecap="round" stroke-linejoin="round" stroke-width="1"/>
      <rect id="Rectangle_1202" data-name="Rectangle 1202" width="3.89" height="3.741" transform="translate(40.54 37.217)" fill="none" stroke="#4d858d" stroke-linecap="round" stroke-linejoin="round" stroke-width="1"/>
      <rect id="Rectangle_1203" data-name="Rectangle 1203" width="3.889" height="3.742" transform="translate(33.039 29.81)" fill="none" stroke="#4d858d" stroke-linecap="round" stroke-linejoin="round" stroke-width="1"/>
      <rect id="Rectangle_1204" data-name="Rectangle 1204" width="3.89" height="3.742" transform="translate(40.54 29.81)" fill="none" stroke="#4d858d" stroke-linecap="round" stroke-linejoin="round" stroke-width="1"/>
      <path id="Path_5496" data-name="Path 5496" d="M33.125,60.337,31.312,49.376c3.875-1.273,11.407-5.793,13.4-10.923.57-1.466,1.042-2.907-.847-4.142-1.83-1.193-3.4.5-4.206,1.532a20.239,20.239,0,0,1-10.738,6.8l-3,4.1L20.2,43.977c-4.6.95-7.279,3.54-6.757,8.175l1.4,8.185" transform="translate(-13.374 -14.53)" fill="none" stroke="#4d858d" stroke-linecap="round" stroke-linejoin="round" stroke-width="1"/>
      <path id="Path_5497" data-name="Path 5497" d="M20.163,53.337h0l1.052,7" transform="translate(-13.496 -14.879)" fill="none" stroke="#4d858d" stroke-linecap="round" stroke-linejoin="round" stroke-width="1"/>
      <path id="Path_5498" data-name="Path 5498" d="M16.062,35.348a6.572,6.572,0,1,0,12.514-3.381" transform="translate(-13.423 -14.495)" fill="none" stroke="#4d858d" stroke-linecap="round" stroke-linejoin="round" stroke-width="1"/>
      <path id="Path_5499" data-name="Path 5499" d="M29.058,31.457A7.265,7.265,0,0,0,20.2,26.011a6.549,6.549,0,0,0-1.869.822,7.365,7.365,0,0,0-3.014,8.039" transform="translate(-13.404 -14.384)" fill="none" stroke="#4d858d" stroke-linecap="round" stroke-linejoin="round" stroke-width="1"/>
      <line id="Line_197" data-name="Line 197" y1="4.462" x2="16.515" transform="translate(1.463 16.328)" fill="none" stroke="#4d858d" stroke-linecap="round" stroke-linejoin="round" stroke-width="1"/>
    </g>
  </g>
</svg>
